<?xml version="1.0" encoding="utf-8"?>
<!-- Generator: Adobe Illustrator 21.0.0, SVG Export Plug-In . SVG Version: 6.00 Build 0)  -->
<svg version="1.1"
	 id="svg5258" xmlns:cc="http://creativecommons.org/ns#" xmlns:dc="http://purl.org/dc/elements/1.1/" xmlns:rdf="http://www.w3.org/1999/02/22-rdf-syntax-ns#"
	 xmlns="http://www.w3.org/2000/svg" xmlns:xlink="http://www.w3.org/1999/xlink" x="0px" y="0px" height="54.41809844970703mm" width="55.38610076904297mm" viewBox="0 0 157 154.3" 
	 style="enable-background:new 0 0 157 154.3;" xml:space="preserve">
<style type="text/css">
	.st0{fill:none;}
	.st1{fill:#C0C0C0;}
	.st2{fill:#E6E6E6;}
	.st3{fill:#337AB7;}
	.st4{fill:#FFA000;}
	.st5{fill:#FFCA28;}
	.st6{font-family:'ArialMT';}
	.st7{font-size:9px;}
	.st8{fill:#999999;}
	.st9{font-size:7.2px;}
</style>
<rect id="svgEditorBackground" y="0" class="st0" width="157" height="154.3"/>
<g id="layer1" transform="translate(-264.73213,-421.6664)">
	<path id="rect4188-1-4" class="st1" d="M341.7,445.8v20.8h-16H303h-20.8h-1.1c-1,0-1.9,0.8-1.9,1.9v1.1v20.8c0,1,0.8,1.9,1.9,1.9
		h1.1c1,0,1.9-0.8,1.9-1.9v-18.9H303h17.9v20.8h4.8v-20.8h16h4.8h16v20.8h4.8v-20.8h20.8h16v18.9c0,1,0.8,1.9,1.9,1.9h1.1
		c1,0,1.9-0.8,1.9-1.9v-20.8v-1.1c0-1-0.8-1.9-1.9-1.9h-18.9h-20.8h-20.8v-20.8H341.7z"/>
	<path id="path4138-8" class="st1" d="M356.9,424.9h-14.4l-3.2-3.2h-8c-1.8,0-3.2,1.4-3.2,3.2v6.4h32v-3.2
		C360.1,426.3,358.6,424.9,356.9,424.9z"/>
	<path id="path4140-5" class="st2" d="M356.9,424.9h-25.6c-1.8,0-3.2,1.4-3.2,3.2v16c0,1.8,1.4,3.2,3.2,3.2h25.6
		c1.8,0,3.2-1.4,3.2-3.2v-16C360.1,426.3,358.6,424.9,356.9,424.9z"/>
	<path id="rect4188-1-9-4-6-2" class="st3" d="M362.2,510.9v18.6h-17.9h-21.9c-1,0-1.9,0.8-1.9,1.9v1.1v20.8c0,1,0.8,1.9,1.9,1.9
		h1.1c1,0,1.9-0.8,1.9-1.9v-18.9h18.9h17.9v2.2v18.6h4.8v-18.6v-2.2h20.8h16v18.9c0,1,0.8,1.9,1.9,1.9h1.1c1,0,1.9-0.8,1.9-1.9
		v-20.8v-1.1c0-1-0.8-1.9-1.9-1.9h-18.9H367v-18.6H362.2z"/>
	<g id="g4148-4-1-8" transform="translate(364.89882,495.81407)">
		<path id="path4138-2-8-5" class="st4" d="M12-5.2H-2.4l-3.2-3.2h-8c-1.8,0-3.2,1.4-3.2,3.2v6.4h32V-2C15.2-3.8,13.7-5.2,12-5.2z"
			/>
		<path id="path4140-6-7-5" class="st5" d="M12-5.2h-25.6c-1.8,0-3.2,1.4-3.2,3.2v16c0,1.8,1.4,3.2,3.2,3.2H12
			c1.8,0,3.2-1.4,3.2-3.2V-2C15.2-3.8,13.7-5.2,12-5.2z"/>
	</g>
	<path id="path4138-2-0-1" class="st1" d="M335.2,490.6h-14.4l-3.2-3.2h-8c-1.8,0-3.2,1.4-3.2,3.2v6.4h32v-3.2
		C338.4,492,337,490.6,335.2,490.6L335.2,490.6z"/>
	<path id="path4140-6-8-8" class="st2" d="M335.2,490.6h-25.6c-1.8,0-3.2,1.4-3.2,3.2v16c0,1.8,1.4,3.2,3.2,3.2h25.6
		c1.8,0,3.2-1.4,3.2-3.2v-16C338.4,492,337,490.6,335.2,490.6L335.2,490.6z"/>
	<text transform="matrix(1 0 0 1 351.0949 504.1399)" class="st6 st7">home</text>
	<path id="path4138-2-8-2-0" class="st1" d="M293.5,490.6h-14.4l-3.2-3.2h-8c-1.8,0-3.2,1.4-3.2,3.2v6.4h32v-3.2
		C296.7,492,295.3,490.6,293.5,490.6L293.5,490.6z"/>
	<path id="path4140-6-7-6-5" class="st2" d="M293.5,490.6h-25.6c-1.8,0-3.2,1.4-3.2,3.2v16c0,1.8,1.4,3.2,3.2,3.2h25.6
		c1.8,0,3.2-1.4,3.2-3.2v-16C296.7,492,295.3,490.6,293.5,490.6L293.5,490.6z"/>
	<path id="path4138-2-8-3-7" class="st1" d="M418.5,490.6h-14.4l-3.2-3.2h-8c-1.8,0-3.2,1.4-3.2,3.2v6.4h32v-3.2
		C421.7,492,420.3,490.6,418.5,490.6L418.5,490.6z"/>
	<path id="path4140-6-7-2-6" class="st2" d="M418.5,490.6h-25.6c-1.8,0-3.2,1.4-3.2,3.2v16c0,1.8,1.4,3.2,3.2,3.2h25.6
		c1.8,0,3.2-1.4,3.2-3.2v-16C421.7,492,420.3,490.6,418.5,490.6L418.5,490.6z"/>
	<text transform="matrix(1 0 0 1 311.6364 504.1399)" class="st8 st6 st7">usr</text>
	<text transform="matrix(1 0 0 1 273.2477 504.2107)" class="st8 st6 st7">bin</text>
	<text transform="matrix(1 0 0 1 398.4904 504.1756)" class="st8 st6 st7">tmp</text>
	<text transform="matrix(1 0 0 1 342.0627 439.2244)" class="st8 st6 st7">/</text>
	<g id="g4148-4-1-67" transform="translate(364.54522,574.48658)">
		<path id="path4138-2-8-0" class="st4" d="M12-21H-2.4l-3.2-3.2h-8c-1.8,0-3.2,1.4-3.2,3.2v6.4h32v-3.2C15.2-19.5,13.8-21,12-21z"
			/>
		<path id="path4140-6-7-7" class="st5" d="M12-21h-25.6c-1.8,0-3.2,1.4-3.2,3.2v16c0,1.8,1.4,3.2,3.2,3.2H12c1.8,0,3.2-1.4,3.2-3.2
			v-16C15.2-19.5,13.8-21,12-21z"/>
	</g>
	<g id="g4148-4-0-2" transform="translate(312.46187,574.48658)">
		<path id="path4138-2-0-0" class="st4" d="M22.5-21H8.1l-3.2-3.2h-8c-1.8,0-3.2,1.4-3.2,3.2v6.4h32v-3.2C25.7-19.5,24.2-21,22.5-21
			z"/>
		<path id="path4140-6-8-6" class="st5" d="M22.5-21H-3.1c-1.8,0-3.2,1.4-3.2,3.2v16c0,1.8,1.4,3.2,3.2,3.2h25.6
			c1.8,0,3.2-1.4,3.2-3.2v-16C25.7-19.5,24.2-21,22.5-21z"/>
	</g>
	<text transform="matrix(1 0 0 1 356.6432 566.3777)" class="st6 st9">larry</text>
	<g id="g4148-4-1-3-2" transform="translate(416.62856,574.48658)">
		<path id="path4138-2-8-3-4" class="st4" d="M1.6-21h-14.4l-3.2-3.2h-8c-1.8,0-3.2,1.4-3.2,3.2v6.4h32v-3.2C4.8-19.5,3.4-21,1.6-21
			z"/>
		<path id="path4140-6-7-2-7" class="st5" d="M1.6-21H-24c-1.8,0-3.2,1.4-3.2,3.2v16c0,1.8,1.4,3.2,3.2,3.2H1.6
			c1.8,0,3.2-1.4,3.2-3.2v-16C4.8-19.5,3.4-21,1.6-21z"/>
	</g>
	<text transform="matrix(1 0 0 1 309.0656 566.2781)" class="st6 st9">imhotep</text>
	<text transform="matrix(1 0 0 1 398.11 566.2136)" class="st6 st9">nelle</text>
</g>
</svg>
